<mxfile host="app.diagrams.net" agent="Mozilla/5.0 (X11; Linux x86_64) AppleWebKit/537.36 (KHTML, like Gecko) Chrome/133.0.0.0 Safari/537.36" version="26.0.14">
  <diagram name="Page-1" id="xm5KmcZdopvaGnkaJR0_">
    <mxGraphModel dx="919" dy="1887" grid="1" gridSize="10" guides="1" tooltips="1" connect="1" arrows="1" fold="1" page="1" pageScale="1" pageWidth="850" pageHeight="1100" math="0" shadow="0">
      <root>
        <mxCell id="0" />
        <mxCell id="1" parent="0" />
        <mxCell id="C29Km5RfJu_qYMMxc9Lp-41" value="" style="rounded=1;whiteSpace=wrap;html=1;fillColor=#d5e8d4;strokeColor=#82b366;" vertex="1" parent="1">
          <mxGeometry x="120" y="210" width="640" height="270" as="geometry" />
        </mxCell>
        <mxCell id="C29Km5RfJu_qYMMxc9Lp-5" value="Controllers" style="shape=folder;fontStyle=1;tabWidth=110;tabHeight=30;tabPosition=left;html=1;boundedLbl=1;labelInHeader=1;container=1;collapsible=0;recursiveResize=0;whiteSpace=wrap;" vertex="1" parent="1">
          <mxGeometry x="137" y="270" width="163" height="170" as="geometry" />
        </mxCell>
        <mxCell id="C29Km5RfJu_qYMMxc9Lp-67" value="CusomerController" style="rounded=0;whiteSpace=wrap;html=1;" vertex="1" parent="C29Km5RfJu_qYMMxc9Lp-5">
          <mxGeometry x="20" y="55" width="120" height="45" as="geometry" />
        </mxCell>
        <mxCell id="C29Km5RfJu_qYMMxc9Lp-10" value="Presenters" style="shape=folder;fontStyle=1;tabWidth=110;tabHeight=30;tabPosition=left;html=1;boundedLbl=1;labelInHeader=1;container=1;collapsible=0;recursiveResize=0;whiteSpace=wrap;" vertex="1" parent="1">
          <mxGeometry x="320" y="270" width="190" height="170" as="geometry" />
        </mxCell>
        <mxCell id="C29Km5RfJu_qYMMxc9Lp-60" style="rounded=0;orthogonalLoop=1;jettySize=auto;html=1;fillColor=#fa6800;strokeColor=#C73500;dashed=1;" edge="1" parent="C29Km5RfJu_qYMMxc9Lp-10" source="C29Km5RfJu_qYMMxc9Lp-11" target="C29Km5RfJu_qYMMxc9Lp-44">
          <mxGeometry relative="1" as="geometry" />
        </mxCell>
        <mxCell id="C29Km5RfJu_qYMMxc9Lp-11" value="CustomerPresenter" style="html=1;whiteSpace=wrap;" vertex="1" parent="C29Km5RfJu_qYMMxc9Lp-10">
          <mxGeometry width="150" height="40" relative="1" as="geometry">
            <mxPoint x="20" y="115" as="offset" />
          </mxGeometry>
        </mxCell>
        <mxCell id="C29Km5RfJu_qYMMxc9Lp-44" value="CustomerViewModel" style="ellipse;whiteSpace=wrap;html=1;" vertex="1" parent="C29Km5RfJu_qYMMxc9Lp-10">
          <mxGeometry x="20" y="45" width="150" height="40" as="geometry" />
        </mxCell>
        <mxCell id="C29Km5RfJu_qYMMxc9Lp-12" value="Gateways" style="shape=folder;fontStyle=1;tabWidth=110;tabHeight=30;tabPosition=left;html=1;boundedLbl=1;labelInHeader=1;container=1;collapsible=0;recursiveResize=0;whiteSpace=wrap;" vertex="1" parent="1">
          <mxGeometry x="530" y="270" width="188" height="170" as="geometry" />
        </mxCell>
        <mxCell id="C29Km5RfJu_qYMMxc9Lp-13" value="MSSQLAppDbContext" style="html=1;whiteSpace=wrap;" vertex="1" parent="C29Km5RfJu_qYMMxc9Lp-12">
          <mxGeometry width="150" height="30" relative="1" as="geometry">
            <mxPoint x="20" y="50" as="offset" />
          </mxGeometry>
        </mxCell>
        <mxCell id="C29Km5RfJu_qYMMxc9Lp-35" value="ImageService" style="html=1;whiteSpace=wrap;" vertex="1" parent="C29Km5RfJu_qYMMxc9Lp-12">
          <mxGeometry x="18" y="100" width="150" height="30" as="geometry" />
        </mxCell>
        <mxCell id="C29Km5RfJu_qYMMxc9Lp-15" value="Interface Adapters" style="text;html=1;align=center;verticalAlign=middle;whiteSpace=wrap;rounded=0;" vertex="1" parent="1">
          <mxGeometry x="210" y="210" width="200" height="30" as="geometry" />
        </mxCell>
        <mxCell id="C29Km5RfJu_qYMMxc9Lp-16" value="" style="rounded=1;whiteSpace=wrap;html=1;fillColor=#dae8fc;strokeColor=#6c8ebf;" vertex="1" parent="1">
          <mxGeometry x="120" y="110" width="640" height="80" as="geometry" />
        </mxCell>
        <mxCell id="C29Km5RfJu_qYMMxc9Lp-17" value="Framework And Drivers" style="text;html=1;align=center;verticalAlign=middle;whiteSpace=wrap;rounded=0;" vertex="1" parent="1">
          <mxGeometry x="135" y="120" width="200" height="30" as="geometry" />
        </mxCell>
        <mxCell id="C29Km5RfJu_qYMMxc9Lp-34" style="rounded=0;orthogonalLoop=1;jettySize=auto;html=1;fillColor=#0050ef;strokeColor=#001DBC;" edge="1" parent="1" source="C29Km5RfJu_qYMMxc9Lp-20" target="C29Km5RfJu_qYMMxc9Lp-21">
          <mxGeometry relative="1" as="geometry" />
        </mxCell>
        <mxCell id="C29Km5RfJu_qYMMxc9Lp-20" value="MyMS_SQL_Driver" style="rounded=0;whiteSpace=wrap;html=1;" vertex="1" parent="1">
          <mxGeometry x="450" y="150" width="240" height="30" as="geometry" />
        </mxCell>
        <mxCell id="C29Km5RfJu_qYMMxc9Lp-21" value="MS SQL" style="shape=cylinder3;whiteSpace=wrap;html=1;boundedLbl=1;backgroundOutline=1;size=15;" vertex="1" parent="1">
          <mxGeometry x="475" y="-20" width="190" height="100" as="geometry" />
        </mxCell>
        <mxCell id="C29Km5RfJu_qYMMxc9Lp-22" value="User" style="shape=umlActor;verticalLabelPosition=bottom;verticalAlign=top;html=1;outlineConnect=0;" vertex="1" parent="1">
          <mxGeometry x="215.5" y="-120" width="30" height="60" as="geometry" />
        </mxCell>
        <mxCell id="C29Km5RfJu_qYMMxc9Lp-30" style="rounded=0;orthogonalLoop=1;jettySize=auto;html=1;fillColor=#1ba1e2;strokeColor=#006EAF;exitX=0.323;exitY=0.987;exitDx=0;exitDy=0;exitPerimeter=0;" edge="1" parent="1" source="C29Km5RfJu_qYMMxc9Lp-24">
          <mxGeometry relative="1" as="geometry">
            <mxPoint x="204" y="-150" as="sourcePoint" />
            <mxPoint x="230" y="270" as="targetPoint" />
          </mxGeometry>
        </mxCell>
        <mxCell id="C29Km5RfJu_qYMMxc9Lp-24" value="" style="strokeWidth=1;shadow=0;dashed=0;align=center;html=1;shape=mxgraph.mockup.containers.browserWindow;rSize=0;strokeColor=#666666;strokeColor2=#008cff;strokeColor3=#c4c4c4;mainText=,;recursiveResize=0;" vertex="1" parent="1">
          <mxGeometry x="123" y="-15" width="212" height="90" as="geometry" />
        </mxCell>
        <mxCell id="C29Km5RfJu_qYMMxc9Lp-25" value="Page 1" style="strokeWidth=1;shadow=0;dashed=0;align=center;html=1;shape=mxgraph.mockup.containers.anchor;fontSize=17;fontColor=#666666;align=left;whiteSpace=wrap;" vertex="1" parent="C29Km5RfJu_qYMMxc9Lp-24">
          <mxGeometry x="60" y="12" width="110" height="26" as="geometry" />
        </mxCell>
        <mxCell id="C29Km5RfJu_qYMMxc9Lp-26" value="https://127.0.0.1" style="strokeWidth=1;shadow=0;dashed=0;align=center;html=1;shape=mxgraph.mockup.containers.anchor;rSize=0;fontSize=17;fontColor=#666666;align=left;" vertex="1" parent="C29Km5RfJu_qYMMxc9Lp-24">
          <mxGeometry x="130" y="60" width="170" height="26" as="geometry" />
        </mxCell>
        <mxCell id="C29Km5RfJu_qYMMxc9Lp-28" style="rounded=0;orthogonalLoop=1;jettySize=auto;html=1;entryX=0.517;entryY=0.025;entryDx=0;entryDy=0;entryPerimeter=0;" edge="1" parent="1" source="C29Km5RfJu_qYMMxc9Lp-22" target="C29Km5RfJu_qYMMxc9Lp-24">
          <mxGeometry relative="1" as="geometry" />
        </mxCell>
        <mxCell id="C29Km5RfJu_qYMMxc9Lp-31" value="" style="rounded=1;whiteSpace=wrap;html=1;fillColor=#f8cecc;strokeColor=#b85450;" vertex="1" parent="1">
          <mxGeometry x="120" y="500" width="640" height="130" as="geometry" />
        </mxCell>
        <mxCell id="C29Km5RfJu_qYMMxc9Lp-32" value="Use Cases" style="text;html=1;align=center;verticalAlign=middle;whiteSpace=wrap;rounded=0;" vertex="1" parent="1">
          <mxGeometry x="157" y="520" width="250" height="30" as="geometry" />
        </mxCell>
        <mxCell id="C29Km5RfJu_qYMMxc9Lp-33" style="rounded=0;orthogonalLoop=1;jettySize=auto;html=1;entryX=0.5;entryY=1;entryDx=0;entryDy=0;fillColor=#0050ef;strokeColor=#001DBC;" edge="1" parent="1" source="C29Km5RfJu_qYMMxc9Lp-13" target="C29Km5RfJu_qYMMxc9Lp-20">
          <mxGeometry relative="1" as="geometry" />
        </mxCell>
        <mxCell id="C29Km5RfJu_qYMMxc9Lp-36" value="Azure Blob" style="verticalLabelPosition=bottom;html=1;verticalAlign=top;align=center;strokeColor=none;fillColor=#00BEF2;shape=mxgraph.azure.cloud;" vertex="1" parent="1">
          <mxGeometry x="698" y="13.75" width="50" height="32.5" as="geometry" />
        </mxCell>
        <mxCell id="C29Km5RfJu_qYMMxc9Lp-37" style="rounded=0;orthogonalLoop=1;jettySize=auto;html=1;fillColor=#0050ef;strokeColor=#001DBC;" edge="1" parent="1" source="C29Km5RfJu_qYMMxc9Lp-35" target="C29Km5RfJu_qYMMxc9Lp-36">
          <mxGeometry relative="1" as="geometry" />
        </mxCell>
        <mxCell id="C29Km5RfJu_qYMMxc9Lp-53" style="rounded=0;orthogonalLoop=1;jettySize=auto;html=1;fillColor=#0050ef;strokeColor=#001DBC;" edge="1" parent="1" source="C29Km5RfJu_qYMMxc9Lp-39" target="C29Km5RfJu_qYMMxc9Lp-13">
          <mxGeometry relative="1" as="geometry" />
        </mxCell>
        <mxCell id="C29Km5RfJu_qYMMxc9Lp-54" style="rounded=0;orthogonalLoop=1;jettySize=auto;html=1;fillColor=#0050ef;strokeColor=#001DBC;" edge="1" parent="1" source="C29Km5RfJu_qYMMxc9Lp-39" target="C29Km5RfJu_qYMMxc9Lp-35">
          <mxGeometry relative="1" as="geometry" />
        </mxCell>
        <mxCell id="C29Km5RfJu_qYMMxc9Lp-39" value="CustomerService" style="rounded=0;whiteSpace=wrap;html=1;" vertex="1" parent="1">
          <mxGeometry x="347" y="570" width="187" height="30" as="geometry" />
        </mxCell>
        <mxCell id="C29Km5RfJu_qYMMxc9Lp-40" value="ProductService" style="rounded=0;whiteSpace=wrap;html=1;" vertex="1" parent="1">
          <mxGeometry x="137" y="570" width="187" height="30" as="geometry" />
        </mxCell>
        <mxCell id="C29Km5RfJu_qYMMxc9Lp-45" value="" style="rounded=1;whiteSpace=wrap;html=1;fillColor=#ffe6cc;strokeColor=#d79b00;" vertex="1" parent="1">
          <mxGeometry x="120" y="650" width="640" height="130" as="geometry" />
        </mxCell>
        <mxCell id="C29Km5RfJu_qYMMxc9Lp-46" value="Product" style="rounded=0;whiteSpace=wrap;html=1;" vertex="1" parent="1">
          <mxGeometry x="175" y="720" width="132" height="40" as="geometry" />
        </mxCell>
        <mxCell id="C29Km5RfJu_qYMMxc9Lp-47" value="Customer" style="rounded=0;whiteSpace=wrap;html=1;" vertex="1" parent="1">
          <mxGeometry x="335" y="720" width="132" height="40" as="geometry" />
        </mxCell>
        <mxCell id="C29Km5RfJu_qYMMxc9Lp-48" value="Entities" style="text;html=1;align=center;verticalAlign=middle;whiteSpace=wrap;rounded=0;" vertex="1" parent="1">
          <mxGeometry x="157" y="670" width="250" height="30" as="geometry" />
        </mxCell>
        <mxCell id="C29Km5RfJu_qYMMxc9Lp-50" value="Order" style="rounded=0;whiteSpace=wrap;html=1;" vertex="1" parent="1">
          <mxGeometry x="487" y="720" width="132" height="40" as="geometry" />
        </mxCell>
        <mxCell id="C29Km5RfJu_qYMMxc9Lp-51" style="rounded=0;orthogonalLoop=1;jettySize=auto;html=1;fillColor=#0050ef;strokeColor=#001DBC;" edge="1" parent="1" source="C29Km5RfJu_qYMMxc9Lp-39" target="C29Km5RfJu_qYMMxc9Lp-47">
          <mxGeometry relative="1" as="geometry" />
        </mxCell>
        <mxCell id="C29Km5RfJu_qYMMxc9Lp-52" style="rounded=0;orthogonalLoop=1;jettySize=auto;html=1;entryX=0.441;entryY=0.05;entryDx=0;entryDy=0;entryPerimeter=0;fillColor=#0050ef;strokeColor=#001DBC;" edge="1" parent="1" source="C29Km5RfJu_qYMMxc9Lp-39" target="C29Km5RfJu_qYMMxc9Lp-50">
          <mxGeometry relative="1" as="geometry" />
        </mxCell>
        <mxCell id="C29Km5RfJu_qYMMxc9Lp-71" style="rounded=0;orthogonalLoop=1;jettySize=auto;html=1;entryX=0.25;entryY=0;entryDx=0;entryDy=0;fillColor=#1ba1e2;strokeColor=#006EAF;" edge="1" parent="1" source="C29Km5RfJu_qYMMxc9Lp-67" target="C29Km5RfJu_qYMMxc9Lp-39">
          <mxGeometry relative="1" as="geometry">
            <mxPoint x="243.32317073170725" y="410" as="sourcePoint" />
          </mxGeometry>
        </mxCell>
        <mxCell id="C29Km5RfJu_qYMMxc9Lp-72" style="rounded=0;orthogonalLoop=1;jettySize=auto;html=1;fillColor=#fa6800;strokeColor=#C73500;dashed=1;" edge="1" parent="1" source="C29Km5RfJu_qYMMxc9Lp-39" target="C29Km5RfJu_qYMMxc9Lp-11">
          <mxGeometry relative="1" as="geometry" />
        </mxCell>
        <mxCell id="C29Km5RfJu_qYMMxc9Lp-73" style="rounded=0;orthogonalLoop=1;jettySize=auto;html=1;dashed=1;fillColor=#fa6800;strokeColor=#C73500;exitX=0.5;exitY=0;exitDx=0;exitDy=0;" edge="1" parent="1" source="C29Km5RfJu_qYMMxc9Lp-44" target="C29Km5RfJu_qYMMxc9Lp-24">
          <mxGeometry relative="1" as="geometry" />
        </mxCell>
      </root>
    </mxGraphModel>
  </diagram>
</mxfile>
